<svg xmlns="http://www.w3.org/2000/svg" viewBox="0 0 1024 1024">
  <!-- Seven Readings: seven ribbons on brown. Generated by
       tools/icons.py; edit that, not this. -->
  <rect width="1024" height="1024" rx="225" fill="#5b4636"/>
  <polygon points="176,143 248,143 248,717 212,677 176,717" fill="#f4e7ce"/>
  <polygon points="276,143 348,143 348,819 312,779 276,819" fill="#e1c27a"/>
  <polygon points="376,143 448,143 448,901 412,861 376,901" fill="#c98a3e"/>
  <polygon points="476,143 548,143 548,778 512,738 476,778" fill="#b2573b"/>
  <polygon points="576,143 648,143 648,860 612,820 576,860" fill="#8c4a3c"/>
  <polygon points="676,143 748,143 748,676 712,636 676,676" fill="#7b8a5c"/>
  <polygon points="776,143 848,143 848,758 812,718 776,758" fill="#5f8a8b"/>
</svg>
